<?xml version="1.0" encoding="utf-8"?><svg xmlns="http://www.w3.org/2000/svg" xmlns:xlink="http://www.w3.org/1999/xlink"><symbol viewBox="0 0 268.832 268.832" id="arrow" xmlns="http://www.w3.org/2000/svg"><path d="M265.171 125.577l-80-80c-4.881-4.881-12.797-4.881-17.678 0-4.882 4.882-4.882 12.796 0 17.678l58.661 58.661H12.5c-6.903 0-12.5 5.597-12.5 12.5 0 6.902 5.597 12.5 12.5 12.5h213.654l-58.659 58.661c-4.882 4.882-4.882 12.796 0 17.678 2.44 2.439 5.64 3.661 8.839 3.661s6.398-1.222 8.839-3.661l79.998-80c4.882-4.882 4.882-12.796 0-17.678z"/></symbol><symbol viewBox="0 0 512 512" id="drag" xmlns="http://www.w3.org/2000/svg"><path d="M261.914 435.2h34.133c5.12 0 8.533-3.413 8.533-8.533s-3.413-8.533-8.533-8.533h-34.133c-5.12 0-8.533 3.413-8.533 8.533s3.413 8.533 8.533 8.533zm42.667 17.067h-50.347c-5.12 0-8.533 3.413-8.533 8.533 0 5.12 3.413 8.533 8.533 8.533h50.347c5.12 0 8.533-3.413 8.533-8.533 0-5.12-3.413-8.533-8.533-8.533z"/><path d="M389.914 68.267c-9.387 0-18.773 3.413-25.6 8.533v-8.533c0-23.893-18.773-42.667-42.667-42.667-10.24 0-18.773 3.413-26.453 9.387C291.781 15.36 273.861 0 253.381 0c-17.92 0-34.133 11.947-40.107 28.16-7.68-6.827-17.067-11.093-28.16-11.093-23.893 0-42.667 18.773-42.667 42.667v47.787c-11.093-7.68-26.453-11.093-39.253-6.827-6.827 1.707-28.16 11.947-18.773 50.347 7.68 30.72 2.56 71.68-.853 104.96-1.707 8.533-2.56 17.067-3.413 24.747-8.148 96.299 53.783 141.146 70.827 151.305v69.708c0 5.12 3.413 8.533 8.533 8.533 5.12 0 8.533-3.413 8.533-8.533v-75.093c0-4.311-2.426-7.403-6.247-8.275-9.643-5.269-71.844-43.115-64.58-135.938.853-7.68 1.707-16.213 2.56-24.747 4.267-34.987 9.387-77.653.853-110.933-2.56-10.24-4.267-26.453 7.68-30.72 11.093-3.413 28.16 4.267 34.133 15.36V204.8c0 5.12 3.413 8.533 8.533 8.533s8.533-3.413 8.533-8.533V59.733c0-14.507 11.093-25.6 25.6-25.6s25.6 11.093 25.6 25.6v110.933c0 5.12 3.413 8.533 8.533 8.533 5.12 0 8.533-3.413 8.533-8.533V42.667c0-14.507 11.093-25.6 25.6-25.6s25.6 11.093 25.6 25.6v128c0 5.12 3.413 8.533 8.533 8.533 5.12 0 8.533-3.413 8.533-8.533v-102.4c0-14.507 11.093-25.6 25.6-25.6s25.6 11.093 25.6 25.6v128c0 5.12 3.413 8.533 8.533 8.533s8.533-3.413 8.533-8.533v-85.333c0-14.507 11.093-25.6 25.6-25.6 14.507 0 25.6 11.093 25.6 25.6V281.6c0 96.427-.853 97.28-31.573 138.24l-.853 1.707c-1.707 1.707-1.707 3.413-1.707 5.973v75.947c0 5.12 3.413 8.533 8.533 8.533s8.533-3.413 8.533-8.533v-74.24c33.28-44.373 34.133-48.64 34.133-147.627V110.933c.004-23.893-18.77-42.666-42.663-42.666z"/></symbol><symbol viewBox="0 0 60.734 60.733" id="fb" xmlns="http://www.w3.org/2000/svg"><path d="M57.378.001H3.352A3.352 3.352 0 0 0 0 3.353v54.026a3.353 3.353 0 0 0 3.352 3.354h29.086V37.214h-7.914v-9.167h7.914v-6.76c0-7.843 4.789-12.116 11.787-12.116 3.355 0 6.232.251 7.071.36v8.198l-4.854.002c-3.805 0-4.539 1.809-4.539 4.462v5.851h9.078l-1.187 9.166h-7.892v23.52h15.475a3.355 3.355 0 0 0 3.355-3.351V3.351a3.352 3.352 0 0 0-3.354-3.35z"/></symbol><symbol viewBox="0 0 247.789 247.789" id="home" xmlns="http://www.w3.org/2000/svg"><path d="M223.779 122.895a6 6 0 0 0-6 6V235.79h-64.384v-67.102a6 6 0 0 0-6-6h-47a6 6 0 0 0-6 6v53.207a6 6 0 0 0 12 0v-47.207h35v61.102H30.01V88.929l93.884-75.239 96.132 77.04a6 6 0 1 0 7.504-9.364L127.646 1.318a5.998 5.998 0 0 0-7.504 0L20.258 81.366a5.999 5.999 0 0 0-2.248 4.682v155.741a6 6 0 0 0 6 6h199.769a6 6 0 0 0 6-6V128.895a6 6 0 0 0-6-6z"/></symbol><symbol viewBox="0 0 511 511.9" id="instagram" xmlns="http://www.w3.org/2000/svg"><path d="M510.95 150.5c-1.2-27.2-5.598-45.898-11.9-62.102-6.5-17.199-16.5-32.597-29.6-45.398-12.802-13-28.302-23.102-45.302-29.5-16.296-6.3-34.898-10.7-62.097-11.898C334.648.3 325.949 0 256.449 0s-78.199.3-105.5 1.5c-27.199 1.2-45.898 5.602-62.097 11.898-17.204 6.5-32.602 16.5-45.403 29.602-13 12.8-23.097 28.3-29.5 45.3-6.3 16.302-10.699 34.9-11.898 62.098C.75 177.801.449 186.5.449 256s.301 78.2 1.5 105.5c1.2 27.2 5.602 45.898 11.903 62.102 6.5 17.199 16.597 32.597 29.597 45.398 12.801 13 28.301 23.102 45.301 29.5 16.3 6.3 34.898 10.7 62.102 11.898 27.296 1.204 36 1.5 105.5 1.5s78.199-.296 105.5-1.5c27.199-1.199 45.898-5.597 62.097-11.898a130.934 130.934 0 0 0 74.903-74.898c6.296-16.301 10.699-34.903 11.898-62.102 1.2-27.3 1.5-36 1.5-105.5s-.102-78.2-1.3-105.5zm-46.098 209c-1.102 25-5.301 38.5-8.801 47.5-8.602 22.3-26.301 40-48.602 48.602-9 3.5-22.597 7.699-47.5 8.796-27 1.204-35.097 1.5-103.398 1.5s-76.5-.296-103.403-1.5c-25-1.097-38.5-5.296-47.5-8.796C94.551 451.5 84.45 445 76.25 436.5c-8.5-8.3-15-18.3-19.102-29.398-3.5-9-7.699-22.602-8.796-47.5-1.204-27-1.5-35.102-1.5-103.403s.296-76.5 1.5-103.398c1.097-25 5.296-38.5 8.796-47.5C61.25 94.199 67.75 84.1 76.352 75.898c8.296-8.5 18.296-15 29.398-19.097 9-3.5 22.602-7.7 47.5-8.801 27-1.2 35.102-1.5 103.398-1.5 68.403 0 76.5.3 103.403 1.5 25 1.102 38.5 5.3 47.5 8.8 11.097 4.098 21.199 10.598 29.398 19.098 8.5 8.301 15 18.301 19.102 29.403 3.5 9 7.699 22.597 8.8 47.5 1.2 27 1.5 35.097 1.5 103.398s-.3 76.301-1.5 103.301zm0 0"/><path d="M256.45 124.5c-72.598 0-131.5 58.898-131.5 131.5s58.902 131.5 131.5 131.5c72.6 0 131.5-58.898 131.5-131.5s-58.9-131.5-131.5-131.5zm0 216.8c-47.098 0-85.302-38.198-85.302-85.3s38.204-85.3 85.301-85.3c47.102 0 85.301 38.198 85.301 85.3s-38.2 85.3-85.3 85.3zm167.402-222c0 16.954-13.747 30.7-30.704 30.7-16.953 0-30.699-13.746-30.699-30.7 0-16.956 13.746-30.698 30.7-30.698 16.956 0 30.703 13.742 30.703 30.699zm0 0"/></symbol><symbol viewBox="0 0 512.001 512.001" id="letter" xmlns="http://www.w3.org/2000/svg"><path d="M501.801 90.455H10.199C4.567 90.455 0 95.021 0 100.654v268.728c0 28.764 23.4 52.165 52.165 52.165h407.671c28.764 0 52.165-23.401 52.165-52.165V100.654c-.001-5.633-4.568-10.199-10.2-10.199zm-10.199 278.926c0 17.516-14.25 31.766-31.766 31.766H52.165c-17.516 0-31.766-14.251-31.766-31.766V122.906l229.14 187.584a10.184 10.184 0 0 0 6.461 2.307c2.287 0 4.574-.767 6.452-2.3l177.306-144.829c4.362-3.564 5.01-9.988 1.447-14.351-3.565-4.363-9.988-5.011-14.351-1.446L256.007 289.423 37.879 110.853h453.723v258.528z"/><path d="M469.923 127.859c-3.563-4.363-9.99-5.011-14.35-1.447l-3.06 2.499c-4.363 3.564-5.011 9.988-1.448 14.351a10.177 10.177 0 0 0 7.905 3.747c2.269 0 4.552-.754 6.445-2.3l3.06-2.499c4.363-3.563 5.011-9.988 1.448-14.351z"/></symbol><symbol viewBox="0 0 225.000000 32.000000" id="logo" xmlns="http://www.w3.org/2000/svg"><path d="M0 16v16h225V0H0v16z"/></symbol><symbol viewBox="0 0 473.806 473.806" id="phone-call" xmlns="http://www.w3.org/2000/svg"><path d="M374.456 293.506c-9.7-10.1-21.4-15.5-33.8-15.5-12.3 0-24.1 5.3-34.2 15.4l-31.6 31.5c-2.6-1.4-5.2-2.7-7.7-4-3.6-1.8-7-3.5-9.9-5.3-29.6-18.8-56.5-43.3-82.3-75-12.5-15.8-20.9-29.1-27-42.6 8.2-7.5 15.8-15.3 23.2-22.8 2.8-2.8 5.6-5.7 8.4-8.5 21-21 21-48.2 0-69.2l-27.3-27.3c-3.1-3.1-6.3-6.3-9.3-9.5-6-6.2-12.3-12.6-18.8-18.6-9.7-9.6-21.3-14.7-33.5-14.7s-24 5.1-34 14.7l-.2.2-34 34.3c-12.8 12.8-20.1 28.4-21.7 46.5-2.4 29.2 6.2 56.4 12.8 74.2 16.2 43.7 40.4 84.2 76.5 127.6 43.8 52.3 96.5 93.6 156.7 122.7 23 10.9 53.7 23.8 88 26 2.1.1 4.3.2 6.3.2 23.1 0 42.5-8.3 57.7-24.8.1-.2.3-.3.4-.5 5.2-6.3 11.2-12 17.5-18.1 4.3-4.1 8.7-8.4 13-12.9 9.9-10.3 15.1-22.3 15.1-34.6 0-12.4-5.3-24.3-15.4-34.3l-54.9-55.1zm35.8 105.3c-.1 0-.1.1 0 0-3.9 4.2-7.9 8-12.2 12.2-6.5 6.2-13.1 12.7-19.3 20-10.1 10.8-22 15.9-37.6 15.9-1.5 0-3.1 0-4.6-.1-29.7-1.9-57.3-13.5-78-23.4-56.6-27.4-106.3-66.3-147.6-115.6-34.1-41.1-56.9-79.1-72-119.9-9.3-24.9-12.7-44.3-11.2-62.6 1-11.7 5.5-21.4 13.8-29.7l34.1-34.1c4.9-4.6 10.1-7.1 15.2-7.1 6.3 0 11.4 3.8 14.6 7l.3.3c6.1 5.7 11.9 11.6 18 17.9 3.1 3.2 6.3 6.4 9.5 9.7l27.3 27.3c10.6 10.6 10.6 20.4 0 31-2.9 2.9-5.7 5.8-8.6 8.6-8.4 8.6-16.4 16.6-25.1 24.4-.2.2-.4.3-.5.5-8.6 8.6-7 17-5.2 22.7l.3.9c7.1 17.2 17.1 33.4 32.3 52.7l.1.1c27.6 34 56.7 60.5 88.8 80.8 4.1 2.6 8.3 4.7 12.3 6.7 3.6 1.8 7 3.5 9.9 5.3.4.2.8.5 1.2.7 3.4 1.7 6.6 2.5 9.9 2.5 8.3 0 13.5-5.2 15.2-6.9l34.2-34.2c3.4-3.4 8.8-7.5 15.1-7.5 6.2 0 11.3 3.9 14.4 7.3l.2.2 55.1 55.1c10.3 10.2 10.3 20.7.1 31.3zm-154.2-286.1c26.2 4.4 50 16.8 69 35.8s31.3 42.8 35.8 69c1.1 6.6 6.8 11.2 13.3 11.2.8 0 1.5-.1 2.3-.2 7.4-1.2 12.3-8.2 11.1-15.6-5.4-31.7-20.4-60.6-43.3-83.5s-51.8-37.9-83.5-43.3c-7.4-1.2-14.3 3.7-15.6 11s3.5 14.4 10.9 15.6zm217.2 96.3c-8.9-52.2-33.5-99.7-71.3-137.5s-85.3-62.4-137.5-71.3c-7.3-1.3-14.2 3.7-15.5 11-1.2 7.4 3.7 14.3 11.1 15.6 46.6 7.9 89.1 30 122.9 63.7 33.8 33.8 55.8 76.3 63.7 122.9 1.1 6.6 6.8 11.2 13.3 11.2.8 0 1.5-.1 2.3-.2 7.3-1.1 12.3-8.1 11-15.4z"/></symbol><symbol viewBox="0 0 41.999 41.999" id="play" xmlns="http://www.w3.org/2000/svg"><path d="M36.068 20.176l-29-20A1 1 0 1 0 5.5.999v40a1 1 0 0 0 1.568.823l29-20a.999.999 0 0 0 0-1.646zM7.5 39.095V2.904L33.739 21 7.5 39.095z"/></symbol><symbol viewBox="0 0 56.966 56.966" id="search" xmlns="http://www.w3.org/2000/svg"><path d="M55.146 51.887L41.588 37.786A22.926 22.926 0 0 0 46.984 23c0-12.682-10.318-23-23-23s-23 10.318-23 23 10.318 23 23 23c4.761 0 9.298-1.436 13.177-4.162l13.661 14.208c.571.593 1.339.92 2.162.92.779 0 1.518-.297 2.079-.837a3.004 3.004 0 0 0 .083-4.242zM23.984 6c9.374 0 17 7.626 17 17s-7.626 17-17 17-17-7.626-17-17 7.626-17 17-17z"/></symbol><symbol viewBox="0 0 487.222 487.222" id="star" xmlns="http://www.w3.org/2000/svg"><path d="M486.554 186.811c-1.6-4.9-5.8-8.4-10.9-9.2l-152-21.6-68.4-137.5c-2.3-4.6-7-7.5-12.1-7.5s-9.8 2.9-12.1 7.6l-67.5 137.9-152 22.6c-5.1.8-9.3 4.3-10.9 9.2s-.2 10.3 3.5 13.8l110.3 106.9-25.5 151.4c-.9 5.1 1.2 10.2 5.4 13.2 2.3 1.7 5.1 2.6 7.9 2.6 2.2 0 4.3-.5 6.3-1.6l135.7-71.9 136.1 71.1c2 1 4.1 1.5 6.2 1.5 7.4 0 13.5-6.1 13.5-13.5 0-1.1-.1-2.1-.4-3.1l-26.3-150.5 109.6-107.5c3.9-3.6 5.2-9 3.6-13.9zm-137 107.1c-3.2 3.1-4.6 7.6-3.8 12l22.9 131.3-118.2-61.7c-3.9-2.1-8.6-2-12.6 0l-117.8 62.4 22.1-131.5c.7-4.4-.7-8.8-3.9-11.9l-95.6-92.8 131.9-19.6c4.4-.7 8.2-3.4 10.1-7.4l58.6-119.7 59.4 119.4c2 4 5.8 6.7 10.2 7.4l132 18.8-95.3 93.3z"/></symbol><symbol viewBox="-27 0 443 443.929" id="swipe" xmlns="http://www.w3.org/2000/svg"><path d="M353.832 174.93h-.629a34.606 34.606 0 0 0-22.765 8.304c-5.375-13.957-18.375-23.945-33.56-23.945a35.133 35.133 0 0 0-24.546 10.348 35.764 35.764 0 0 0-31.71-19.707h-.665c-7.437 0-14.71 1.925-19.71 6.007V71.285c0-21.027-16.407-38.133-36.337-38.133-19.91 0-36.215 17.09-36.23 38.106l-.168 168.582-8.649-10.5a49.122 49.122 0 0 0-34.707-18.227 48.367 48.367 0 0 0-36.199 12.801l-8.363 6.938a7.994 7.994 0 0 0-1.989 9.847l81.442 156.516c14.988 28.793 43.512 46.715 74.441 46.715h91.348c46.871 0 85.047-40.63 85.094-90.524.02-22.164.043-38.691.058-52.086.047-35.875.067-49.07-.027-88.59-.05-20.968-16.258-37.8-36.129-37.8zm20.156 126.351c-.015 13.399-.039 29.946-.058 52.11-.04 41.082-31.035 74.539-69.094 74.539h-91.348c-24.941 0-48.023-14.621-60.246-38.102l-78.469-150.77 3.54-2.945a9.76 9.76 0 0 0 .304-.27 32.494 32.494 0 0 1 24.41-8.765 33.244 33.244 0 0 1 23.446 12.418l22.793 27.746a8 8 0 0 0 14.18-5.074l.136-190.902c.008-12.192 9.238-22.114 20.336-22.114 11.098 0 20.328 9.926 20.328 22.133v115.098c0 .402-.02.808-.02 1.215 0 .18.02.363.02.543v49.187a8 8 0 0 0 16 0v-50.676c0-11.761 8.899-20.722 19.711-20.722h.664c11.102 0 20.625 9.468 20.625 21.675v45.032a8 8 0 0 0 16 0v-35.332c0-12.203 8.867-22.133 20.031-22.133 11.102 0 19.97 9.926 19.97 22.133v33.332a8 8 0 0 0 16 0v-18.051c0-12.2 8.858-21.656 19.956-21.656h.629c11.07 0 20.098 9.66 20.129 21.828.094 39.492.074 52.672.027 88.523zM70.422 188.129c-3.125-3.125-8.192-3.125-11.313 0l-13.863 13.863V35.586l13.863 13.86A8.002 8.002 0 0 0 70.422 38.13l-25.52-25.517a7.996 7.996 0 0 0-6.156-5.543 7.985 7.985 0 0 0-7.762 2.89l-.027.024L2.809 38.13a8.002 8.002 0 0 0 0 11.316c3.12 3.125 8.187 3.125 11.312 0L29.246 34.32v168.938l-15.125-15.13a7.997 7.997 0 0 0-11.312 0c-3.125 3.126-3.125 8.192 0 11.313l28.148 28.153a8.002 8.002 0 0 0 11.316 0l28.149-28.153c3.125-3.12 3.125-8.187 0-11.312zm0 0"/><path d="M132.566 67.05c0-28.195 22.856-51.05 51.051-51.05 28.196 0 51.051 22.855 51.051 51.05a8 8 0 0 0 16 0c0-37.03-30.02-67.05-67.05-67.05s-67.052 30.02-67.052 67.05a8 8 0 0 0 16 0zm0 0"/></symbol><symbol viewBox="0 0 612 612" id="twitter" xmlns="http://www.w3.org/2000/svg"><path d="M612 116.258a250.714 250.714 0 0 1-72.088 19.772c25.929-15.527 45.777-40.155 55.184-69.411-24.322 14.379-51.169 24.82-79.775 30.48-22.907-24.437-55.49-39.658-91.63-39.658-69.334 0-125.551 56.217-125.551 125.513 0 9.828 1.109 19.427 3.251 28.606-104.326-5.24-196.835-55.223-258.75-131.174-10.823 18.51-16.98 40.078-16.98 63.101 0 43.559 22.181 81.993 55.835 104.479a125.556 125.556 0 0 1-56.867-15.756v1.568c0 60.806 43.291 111.554 100.693 123.104-10.517 2.83-21.607 4.398-33.08 4.398-8.107 0-15.947-.803-23.634-2.333 15.985 49.907 62.336 86.199 117.253 87.194-42.947 33.654-97.099 53.655-155.916 53.655-10.134 0-20.116-.612-29.944-1.721 55.567 35.681 121.536 56.485 192.438 56.485 230.948 0 357.188-191.291 357.188-357.188l-.421-16.253c24.666-17.593 46.005-39.697 62.794-64.861z"/></symbol><symbol viewBox="0 0 310 310" id="youtube" xmlns="http://www.w3.org/2000/svg"><path d="M297.917 64.645c-11.19-13.302-31.85-18.728-71.306-18.728H83.386c-40.359 0-61.369 5.776-72.517 19.938C0 79.663 0 100.008 0 128.166v53.669c0 54.551 12.896 82.248 83.386 82.248h143.226c34.216 0 53.176-4.788 65.442-16.527C304.633 235.518 310 215.863 310 181.835v-53.669c0-29.695-.841-50.16-12.083-63.521zm-98.896 97.765l-65.038 33.991a9.997 9.997 0 0 1-14.632-8.863v-67.764a10 10 0 0 1 14.609-8.874l65.038 33.772a10 10 0 0 1 .023 17.738z"/></symbol></svg>