<?xml version="1.0" encoding="iso-8859-1"?>
<!-- Generator: Adobe Illustrator 19.0.0, SVG Export Plug-In . SVG Version: 6.00 Build 0)  -->
<svg version="1.1" id="Layer_1" xmlns="http://www.w3.org/2000/svg" xmlns:xlink="http://www.w3.org/1999/xlink" x="0px" y="0px"
	 viewBox="0 0 512 512" style="enable-background:new 0 0 512 512;" xml:space="preserve">
<g transform="translate(1 1)">
	<g>
		<g>
			<path d="M260.914,434.2h34.133c5.12,0,8.533-3.413,8.533-8.533s-3.413-8.533-8.533-8.533h-34.133
				c-5.12,0-8.533,3.413-8.533,8.533S255.794,434.2,260.914,434.2z"/>
			<path d="M303.581,451.267h-50.347c-5.12,0-8.533,3.413-8.533,8.533c0,5.12,3.413,8.533,8.533,8.533h50.347
				c5.12,0,8.533-3.413,8.533-8.533C312.114,454.68,308.701,451.267,303.581,451.267z"/>
			<path d="M388.914,67.267c-9.387,0-18.773,3.413-25.6,8.533v-8.533c0-23.893-18.773-42.667-42.667-42.667
				c-10.24,0-18.773,3.413-26.453,9.387C290.781,14.36,272.861-1,252.381-1c-17.92,0-34.133,11.947-40.107,28.16
				c-7.68-6.827-17.067-11.093-28.16-11.093c-23.893,0-42.667,18.773-42.667,42.667v47.787c-11.093-7.68-26.453-11.093-39.253-6.827
				c-6.827,1.707-28.16,11.947-18.773,50.347c7.68,30.72,2.56,71.68-0.853,104.96c-1.707,8.533-2.56,17.067-3.413,24.747
				c-8.148,96.299,53.783,141.146,70.827,151.305v69.708c0,5.12,3.413,8.533,8.533,8.533c5.12,0,8.533-3.413,8.533-8.533v-75.093
				c0-4.311-2.426-7.403-6.247-8.275c-9.643-5.269-71.844-43.115-64.58-135.938c0.853-7.68,1.707-16.213,2.56-24.747
				c4.267-34.987,9.387-77.653,0.853-110.933c-2.56-10.24-4.267-26.453,7.68-30.72c11.093-3.413,28.16,4.267,34.133,15.36V203.8
				c0,5.12,3.413,8.533,8.533,8.533s8.533-3.413,8.533-8.533V58.733c0-14.507,11.093-25.6,25.6-25.6s25.6,11.093,25.6,25.6v110.933
				c0,5.12,3.413,8.533,8.533,8.533c5.12,0,8.533-3.413,8.533-8.533V58.733V41.667c0-14.507,11.093-25.6,25.6-25.6
				s25.6,11.093,25.6,25.6v17.067v8.533v102.4c0,5.12,3.413,8.533,8.533,8.533c5.12,0,8.533-3.413,8.533-8.533v-102.4
				c0-14.507,11.093-25.6,25.6-25.6s25.6,11.093,25.6,25.6v42.667v85.333c0,5.12,3.413,8.533,8.533,8.533s8.533-3.413,8.533-8.533
				v-85.333c0-14.507,11.093-25.6,25.6-25.6c14.507,0,25.6,11.093,25.6,25.6V280.6c0,96.427-0.853,97.28-31.573,138.24l-0.853,1.707
				c-1.707,1.707-1.707,3.413-1.707,5.973v75.947c0,5.12,3.413,8.533,8.533,8.533s8.533-3.413,8.533-8.533v-74.24
				c33.28-44.373,34.133-48.64,34.133-147.627V109.933C431.581,86.04,412.807,67.267,388.914,67.267z"/>
		</g>
	</g>
</g>
<g>
</g>
<g>
</g>
<g>
</g>
<g>
</g>
<g>
</g>
<g>
</g>
<g>
</g>
<g>
</g>
<g>
</g>
<g>
</g>
<g>
</g>
<g>
</g>
<g>
</g>
<g>
</g>
<g>
</g>
</svg>
